<svg xmlns="http://www.w3.org/2000/svg" xmlns:xlink="http://www.w3.org/1999/xlink" id="Layer_1" x="0px" y="0px" viewBox="0 0 109.8 109.8" xml:space="preserve"><g>	<path fill="#FFFFFF" d="M109.8,55.1C109.9,24.9,85.4,0.2,55.3,0C24.9-0.2,0.2,24.3,0,54.6c-0.2,30.3,24.3,55.1,54.6,55.2  C84.9,109.9,109.7,85.4,109.8,55.1z"></path>	<path fill="#0797B1" d="M109.8,55.1c-0.1,30.3-24.8,54.8-55.2,54.7C24.3,109.6-0.2,84.9,0,54.6C0.2,24.3,24.9-0.2,55.3,0  C85.4,0.2,109.9,24.9,109.8,55.1z M39.2,54.9c0,4.9,0,9.9,0,14.8c0,4.2,2.7,5.8,6.4,4c9.9-4.9,19.8-9.9,29.7-14.8  c1.7-0.8,3.1-1.9,3.1-4c0-2.1-1.4-3.1-3.1-4c-9.8-4.9-19.7-9.8-29.5-14.7c-3.9-2-6.6-0.3-6.6,4.1C39.2,45.2,39.2,50,39.2,54.9z"></path>	<path fill="#FFFFFF" d="M39.2,54.9c0-4.9,0-9.7,0-14.6c0-4.4,2.7-6.1,6.6-4.1c9.8,4.9,19.6,9.9,29.5,14.7c1.7,0.9,3.1,1.9,3.1,4  c0,2.1-1.4,3.1-3.1,4c-9.9,4.9-19.8,9.9-29.7,14.8c-3.7,1.8-6.4,0.2-6.4-4C39.2,64.8,39.2,59.8,39.2,54.9z"></path></g></svg>